<svg version="1.2" baseProfile="tiny-ps" xmlns="http://www.w3.org/2000/svg" viewBox="0 0 1681 632" width="1681" height="632">
	<title>Udemy_logo-svg</title>
	<style>
		tspan { white-space:pre }
		.shp0 { fill: #a435f0 } 
		.shp1 { fill: #000000 } 
	</style>
	<path id="Layer" class="shp0" d="M261.08 150.79L130.52 75.39L0 150.79L0 75.39L130.54 0L261.1 75.39L261.1 150.79L261.08 150.79Z" />
	<path id="Layer" fill-rule="evenodd" class="shp1" d="M68.38 214.1L68.38 380.3C68.38 423.24 100.44 444.17 130.54 444.17C160.91 444.17 192.72 422.68 192.72 379.72L192.72 214.1L261.1 214.1L261.1 384.26C261.1 423.81 248.67 454.33 223.81 475.26C198.92 496.18 167.85 506.36 129.97 506.36C92.11 506.36 61.02 496.19 36.74 475.26C12.43 454.35 0 424.96 0 385.95L0 214.1L68.38 214.1ZM852.3 420.65L903.09 449.98C872.09 485.3 830.78 505.79 778.86 505.79C734.21 505.79 697.47 492.22 669.78 465.65C642.1 439.07 627.97 403.46 627.97 358.79L627.97 356.56C627.97 311.32 642.1 275.14 669.78 247.45C698.05 219.75 733.67 206.18 777.17 206.18C818.44 206.18 852.34 219.75 878.32 247.45C904.89 275.14 917.9 309.07 917.9 349.77C917.9 362.9 916.41 376.88 916.41 376.88L695.47 376.88C699.18 420.17 732.07 448.13 781.13 448.13C808.02 448.13 831.6 439.09 852.3 420.65ZM722.35 281.95C707.77 293.29 699.41 307.23 697.21 323.77L848.86 323.77C848.23 307.77 840.95 293.84 827.46 282.5C813.32 270.05 796.93 263.84 777.15 263.84C756.25 263.84 737.57 270.05 722.34 281.93L722.35 281.95ZM1540.67 544.19C1512.92 609.71 1483.9 632 1439.39 632L1408.55 632L1408.55 571.37L1433.48 571.37C1448.8 571.37 1463.03 565.6 1476.6 534.3L1490.16 502.96L1373.17 214.1L1442.68 214.1L1525.77 422.14L1611.11 214.1L1680.61 214.1L1540.69 544.19L1540.67 544.19ZM527.31 105.02L595.14 105.02L595.14 499L527.31 499L527.31 472.77C511.85 487.03 482.6 505.23 436.33 505.23C396.21 505.23 362.3 491.08 334.61 462.81C307.48 433.98 293.92 398.94 293.92 356.52C293.92 314.12 307.48 279.08 334.61 250.81C362.3 222 396.2 207.87 436.33 207.87C470.04 207.87 504.9 219.82 527.31 239.9L527.31 105.02ZM532.42 356.56C532.42 331.67 523.91 310.76 506.97 294.36C490.58 277.97 469.67 269.49 445.36 269.49C421.06 269.49 401.29 277.97 384.9 294.36C369.08 310.76 361.17 331.67 361.17 356.56C361.17 381.43 369.1 402.34 384.9 418.74C401.29 435.13 421.06 443.63 445.36 443.63C469.67 443.63 490.58 435.13 506.97 418.74C523.91 402.34 532.42 381.43 532.42 356.56ZM1267.73 208.47C1326.73 208.47 1366.64 248.36 1366.64 322.64L1366.64 499L1298.82 499L1298.82 332.23C1298.82 293.25 1280.18 268.93 1247.96 268.93C1214.62 268.93 1191.47 296.07 1191.47 335.07L1191.47 499.02L1124.22 499.02L1124.22 332.26C1124.22 293.27 1105.58 268.95 1073.34 268.95C1041.71 268.95 1017.96 296.65 1017.96 335.09L1017.96 499.04L950.73 499.04L950.73 214.14L1017.96 214.14L1017.96 243.77C1029.97 229.08 1054.01 208.45 1094.82 208.45C1143.1 208.45 1163.76 236.42 1171.1 250.42C1189.44 229.82 1216.22 208.45 1267.73 208.45L1267.73 208.47Z" />
</svg>